<svg width="16" height="16" viewBox="0 0 16 16" fill="none" xmlns="http://www.w3.org/2000/svg">
<circle cx="8" cy="8" r="8" fill="#FF6370"/>
<path d="M4.624 12V10.812C5.144 10.404 5.648 9.996 6.136 9.588C6.624 9.18 7.06 8.776 7.444 8.376C7.836 7.968 8.144 7.572 8.368 7.188C8.6 6.804 8.716 6.432 8.716 6.072C8.716 5.848 8.672 5.644 8.584 5.46C8.504 5.268 8.376 5.116 8.2 5.004C8.024 4.884 7.792 4.824 7.504 4.824C7.224 4.824 6.984 4.888 6.784 5.016C6.592 5.144 6.444 5.316 6.34 5.532C6.244 5.74 6.196 5.976 6.196 6.24H4.636C4.652 5.624 4.788 5.108 5.044 4.692C5.308 4.276 5.656 3.968 6.088 3.768C6.528 3.56 7.016 3.456 7.552 3.456C8.144 3.456 8.644 3.568 9.052 3.792C9.468 4.008 9.784 4.304 10 4.68C10.224 5.056 10.336 5.488 10.336 5.976C10.336 6.344 10.264 6.704 10.12 7.056C9.984 7.408 9.796 7.752 9.556 8.088C9.324 8.416 9.06 8.732 8.764 9.036C8.468 9.34 8.156 9.632 7.828 9.912C7.5 10.184 7.184 10.44 6.88 10.68H10.528V12H4.624Z" fill="white"/>
</svg>
