<svg width="157" height="31" viewBox="0 0 157 31" fill="none" xmlns="http://www.w3.org/2000/svg">
<rect y="10" width="2" height="11" fill="#A162F7"/>
<rect x="5" y="5" width="2" height="21" fill="#A162F7"/>
<rect x="10" width="2" height="31" fill="#A162F7"/>
<rect x="15" y="5" width="2" height="21" fill="#A162F7"/>
<rect x="20" y="10" width="2" height="11" fill="#A162F7"/>
<rect x="25" y="5" width="2" height="21" fill="#A162F7"/>
<rect x="30" y="10" width="2" height="11" fill="#A162F7"/>
<rect x="35" y="14" width="2" height="3" fill="#A162F7"/>
<rect x="40" y="9.5" width="2" height="12" fill="#A162F7"/>
<rect x="45" y="5" width="2" height="21" fill="#A162F7"/>
<rect x="50" width="2" height="31" fill="#A162F7"/>
<rect x="55" y="5" width="2" height="21" fill="#A162F7"/>
<rect x="60" y="10" width="2" height="11" fill="#D1D2D6"/>
<rect x="65" y="6" width="2" height="19" fill="#D1D2D6"/>
<rect x="70" y="10" width="2" height="11" fill="#D1D2D6"/>
<rect x="75" y="14.5" width="2" height="2" fill="#D1D2D6"/>
<rect x="80" y="10" width="2" height="11" fill="#D1D2D6"/>
<rect x="85" y="6" width="2" height="19" fill="#D1D2D6"/>
<rect x="90" width="2" height="31" fill="#D1D2D6"/>
<rect x="95" y="6" width="2" height="19" fill="#D1D2D6"/>
<rect x="100" y="10.5" width="2" height="10" fill="#D1D2D6"/>
<rect x="105" y="6" width="2" height="19" fill="#D1D2D6"/>
<rect x="110" y="10.5" width="2" height="10" fill="#D1D2D6"/>
<rect x="115" y="14.5" width="2" height="2" fill="#D1D2D6"/>
<rect x="120" y="11" width="2" height="9" fill="#D1D2D6"/>
<rect x="125" y="6" width="2" height="19" fill="#D1D2D6"/>
<rect x="130" y="0.5" width="2" height="30" fill="#D1D2D6"/>
<rect x="135" y="6" width="2" height="19" fill="#D1D2D6"/>
<rect x="140" y="11" width="2" height="9" fill="#D1D2D6"/>
<rect x="145" y="6" width="2" height="19" fill="#D1D2D6"/>
<rect x="150" y="10.5" width="2" height="10" fill="#D1D2D6"/>
<rect x="155" y="14.5" width="2" height="2" fill="#D1D2D6"/>
</svg>
